P1
# Created by GIMP version 2.10.32 PNM plug-in
96 48
0000000000000000000000000000000000000000000000000000000000000000000000
0000000000000000000000000000000000000000000000000000000000000000000000
0000000000000000000000000000000000000000000000000000000000000000000000
0000000000000000000000000000000000000000000000000000000000000000000000
0000000000000000000000000000000000000000000000000000000000000000000000
0000000000000000000000000000000000000000000000000000000000000000000000
0000000000000000000000000000000000000000000000000000000000000000000000
0000000000000000000000000000000000000000000000000000000000000000000000
0000000000000000000000000000000000000000000000000000000000000000000000
0000000000000000000000000000000000000000000000000000000000000000000000
0000000000000000000000000000000000000000000000000000000000000000000000
0000000000000000000000000000000000000000000000000000000000000000000000
0000000000000000000000000000000000000000000000000000000000000000000000
0000000000000000000000000000000000000000000000000000000000000000000000
0000000000000000000000000000000000000000000000000000000000000000000000
0000000000000000000000000000000000000000000000000000000000000000000000
0000000000000000000000000000000000000000100000000001010001111010001000
1000000000000100010000101010001000000000000000000000000010000000001000
0101001111101010000001000101000010000010000010000111000010000000000000
0000000000010000000000100001010001010001110000100001100000100000100000
1000111110111110000000111110000000001000000000000000000000111110001010
0100001001000000000010000010000111000010000001000000000010000100000000
0000100000000001010011110010001001101000000000010001000010101000100000
1000000000000000100000000000000000000000000000000000000000000000000000
0000000000000000000000000000000000000000000000000111000010000111000111
0000110011111001110011111001110001110000000000000000010000000001000001
1100100110011000100010100010010100100000100000000010100010100010000100
0001000010001111100010001000101010100010000011000011001001001111001111
0000010001110001111000000000000001000000000000010000110011001000100001
0000100010111110000010100010001000100010000010000100000100001000111110
0010000000000111000111001111100111000001001111000111000010000111000111
0000000000100000010000000001000000100000000000000000000000000000000000
0000000000000000000000000000000000000000000000000000000000000000011100
0111001111000111001111001111101111100111101000101111100000101000101000
0011011010001001110010001010001010001010001010001010000010000010000010
0010001000000010100100100000101010110010100010101110111110111100100000
1000101111001111001011101111100010001000101110001000001010101010101000
1010000010001010001010001010001010000010000010001010001000100010001010
0100100000101010100110100010011100100010111100011100111100111110100000
0111001000101111100111001000101111101000101000100111000000000000000000
0000000000000000000000000000000000000000000000000000000000000000000000
0000000000111100011100111100011110111110100010100010100010100010100010
1111100111001000000111000000000000001000101000101000101000000010001000
1010001010101001010010001000010001000001000000010000100000000011110010
1010111100011100001000100010100010101010001000010100001000010000001000
0001000101000000001000001001101000100000100010001000100101001010100101
0000100001000001000000010000010000000000000010000001111010001011110000
1000011100001000110110100010001000111110011100000010011100000000111110
0000000000000000000000000000000000000000000000000000000000000000000000
0000000000000000000000000000000001110011110001110011110011111011111001
1110100010111110000010100010100000110110100010011100001000100010100010
1000101000101000001000001000001000100010000000101001001000001010101100
1010001000010011111011110010000010001011110011110010111011111000100010
0010111000100000101010101010100010000000100010100010100010100010100000
1000001000101000100010001000101001001000001010101001101000100000001000
1011110001110011110011111010000001110010001011111001110010001011111010
0010100010011100000000000000000000000000000000000000000000000000000000
0000000000000000000000000000000000000000001111000111001111000111101111
1010001010001010001010001010001011111000010000100001000000000000000010
0010100010100010100000001000100010100010101010010100100010000100001000
0010000010000000000000001111001010101111000111000010001000101000101010
1000100001010000100001100000100000110001101000000010000010011010001000
0010001000100010010100101010010100001000010000001000001000001000101100
0000001000000111101000101111000010000111000010001101101000100010001111
1000010000100001000000000000000000000000000000000000000000000000000000
0000000000000000000000000000000000000000000000000000000000